<svg xmlns="http://www.w3.org/2000/svg" xmlns:svg="http://www.w3.org/2000/svg" id="svg2" width="744.094" height="1052.362" version="1.1" viewBox="0 0 744.094 1052.362"><metadata id="metadata7"/><g id="layer1"><g id="g4153"><rect id="rect4151" width="1755" height="1755" x="-3032.074" y="-1036.393" fill="#fff" fill-opacity="1"/><g id="g4147" stroke="none" stroke-opacity="1" transform="translate(1692.0874,24.7673)"><path id="path3336" fill="#6e0000" fill-opacity="1" fill-rule="evenodd" stroke="none" stroke-linecap="butt" stroke-linejoin="miter" stroke-opacity="1" stroke-width="1" d="m -4111.1184,-641.71529 a 528.91583,961.66522 60 0 0 -568.3692,938.88771 528.91583,961.66522 60 0 0 1097.2853,-22.7783 528.91583,961.66522 60 0 0 568.3676,-938.88678 528.91583,961.66522 60 0 0 -1097.2837,22.77737 z m 97.0727,54.998 a 370.52396,831.55756 60 0 1 905.4109,-94.89558 370.52396,831.55756 60 0 1 -534.8864,736.662684 370.52396,831.55756 60 0 1 -905.4136,94.894916 370.52396,831.55756 60 0 1 534.8891,-736.66202 z"/><circle id="path4143" cx="-3846.661" cy="-257.199" r="125" fill="#db0000" fill-opacity="1" stroke="none" stroke-opacity="1"/></g></g></g></svg>
